<svg xmlns="http://www.w3.org/2000/svg" viewBox="0 0 64 64" fill="none" stroke="#94a3b8" stroke-width="2" stroke-linecap="round" stroke-linejoin="round">
  <path d="M32 8l1.5 3 3.5.5-2.5 2.5.5 3.5-3-1.5-3 1.5.5-3.5L27 11.5l3.5-.5z"/>
  <path d="M32 56l-1.5-3-3.5-.5 2.5-2.5-.5-3.5 3 1.5 3-1.5-.5 3.5 2.5 2.5-3.5.5z"/>
  <path d="M8 32l3-1.5.5-3.5-2.5-2.5-3.5.5-1.5 3 1.5 3 .5 3.5 2.5-2.5z"/>
  <path d="M56 32l-3 1.5-.5 3.5 2.5 2.5 3.5-.5 1.5-3-1.5-3-.5-3.5-2.5 2.5z"/>
  <path d="M14.93 14.93l2.12-2.12 2.12 2.12-2.12 2.12-2.12-2.12z"/>
  <path d="M44.83 44.83l2.12-2.12 2.12 2.12-2.12 2.12-2.12-2.12z"/>
  <path d="M14.93 49.07l2.12 2.12 2.12-2.12-2.12-2.12-2.12 2.12z"/>
  <path d="M44.83 19.17l2.12 2.12 2.12-2.12-2.12-2.12-2.12 2.12z"/>
</svg>
