<svg xmlns="http://www.w3.org/2000/svg" viewBox="0 0 64 64" fill="none" stroke="#a855f7" stroke-width="2" stroke-linecap="round" stroke-linejoin="round">
  <path d="M46 24a10 10 0 0 0-17.78-4.44A14 14 0 0 0 16 22a10 10 0 0 0 1.67 19.79"/>
  <path d="M22 42l-2 4"/>
  <path d="M30 42l-2 6"/>
  <path d="M38 42l-2 4"/>
  <path d="M46 42l-2 6"/>
  <path d="M18 52l4-8"/>
  <path d="M26 52l4-10"/>
  <path d="M34 52l4-8"/>
  <path d="M42 52l4-10"/>
  <path d="M22 54l2 4"/>
  <path d="M30 54l2 6"/>
  <path d="M38 54l2 4"/>
  <path d="M46 54l2 6"/>
</svg>
